# xmcd
#
# Track frame offsets:
#	150
#	13187
#	28200
#	41899
#	55697
#	59812
#	76569
#	88993
#	102370
#	116406
#
# Disc length: 1610 seconds
#
# Revision: 1
# Processed by: cddbd v1.5.1PL0 Copyright (c) Steve Scherf et al.
# Submitted via: audiograbber 1.80
#
DISCID=8306480a
DTITLE=Despised Icon - Consumed By Your Poison
DYEAR=1900
DGENRE=
TTITLE0=Compel To Copulate
TTITLE1=Poissonnariat
TTITLE2=Grade A-One
TTITLE3=Le Chêne Et Le Roseau
TTITLE4=Dead King
TTITLE5=Absolu
TTITLE6=Fashionable
TTITLE7=Interfere In Your Days
TTITLE8=Clef De Voûte
TTITLE9=Despise The Icons
EXTD=
EXTT0=
EXTT1=
EXTT2=
EXTT3=
EXTT4=
EXTT5=
EXTT6=
EXTT7=
EXTT8=
EXTT9=
PLAYORDER=
